<?xml version="1.0" encoding="utf-8"?>
<!-- Generator: Adobe Illustrator 13.0.0, SVG Export Plug-In  -->
<!DOCTYPE svg PUBLIC "-//W3C//DTD SVG 1.1 Basic//EN" "http://www.w3.org/Graphics/SVG/1.1/DTD/svg11-basic.dtd" [
	<!ENTITY ns_flows "http://ns.adobe.com/Flows/1.0/">
]>
<svg version="1.1" baseProfile="basic"
	 xmlns="http://www.w3.org/2000/svg" xmlns:xlink="http://www.w3.org/1999/xlink" xmlns:a="http://ns.adobe.com/AdobeSVGViewerExtensions/3.0/"
	 x="0px" y="0px" width="44px" height="44px" viewBox="0.179 0.167 44 44" enable-background="new 0.179 0.167 44 44"
	 xml:space="preserve">
<defs>
</defs>
<g id="XMLID_1_">
	<g>
		<path d="M27.657,11.645c4.165-3.43,9.78-6.86,16.551-6.782c-2.738,5.222-7.069,8.85-13.023,10.853
			c1.327,4.277,0.749,9.297,1.327,13.403c2.136-0.475,4.749-0.307,5.968,0.812c0.917,1.393,1.021,5.599,0.85,5.971
			c-2.171,4.274-3.257,0.51-4.988,0.781c-0.643-0.85-0.101-3.324-0.879-2.949c-0.578,0.778-0.163,0.507-1.01,0.914
			c0.874,2.771-0.144,7.558,0.462,9.52c-0.177,0-0.361,0-0.54,0c-0.741-3.69,0.773-8.345-2.274-9.729
			c1.802-0.005,3.137-0.478,3.525-1.896c0.29,0.974,0.798,1.733,1.628,2.168c0.076-0.244,1.012-0.909,1.085-0.271
			c-0.684,0.584-1.991,0.54-1.899,1.899c1.629-0.138,2.106,1.561,3.8,0.543c1.291-1.976,0.32-4.149,0-6.51
			c-2.122-1.724-6.82-0.752-8.41,0c0.491-0.505,1.313-0.676,1.628-1.357c0.611-4.706-0.13-9.134-0.813-13.297
			c-0.483-0.16-1.129,0.795-1.357,0c5.39-1.121,9.466-3.558,10.038-9.496c-4.662,0.589-8.982,3.854-12.48,6.51
			c-1.886-3.205-10.583-2.154-14.111-0.271c-1.197-3.425-4.896-6.67-8.139-8.953c-1.9,5.794,2.996,8.988,5.97,11.667
			c0.206-0.787,0.429-1.56,1.083-1.899c-1.574,2.315-1.818,5.962-2.44,9.227c2.787-0.344,2.103,4.115,0.814,4.885
			c0.67,2.04,2.874,2.551,4.339,3.799c-4.719-3.465-10.353-0.447-10.31,5.425c0.437,0.467,1.134,0.676,2.171,0.543
			c0.589-0.564-0.033-0.877-0.271-1.356c0.638,0.084,0.505,0.944,1.357,0.813c0.326-1.5-0.776-1.576-0.814-2.714
			c0.782,0.033,0.47,1.159,1.357,1.086c1.01-0.679,0.068-2.595,0.543-3.254c0.554,0.877,0.594,1.848,0.271,2.982
			c1.077,0.19,3.004-0.473,3.253,0.543c-0.757,3.701-2.708,5.102-3.316,8.914c-0.182,0-0.367,0-0.545,0
			c0.502-4.019,2.757-4.955,3.319-8.914c-1.357,0.185-2.098-0.25-3.254-0.271c-0.394,1.457-0.746,3.227-4.035,2.276
			c-1.156-2.746,1.424-8.412,6.206-8.244c-2.936-2.445-1.606-8.543-0.271-13.026C6.15,11.531,1.154,6.769,0.25,0.25
			c5.919,2.13,9.455,7.189,13.295,11.395C17.388,9.64,23.879,9.68,27.657,11.645z M9.952,26.981c1.253-0.85,1.188-4.239-0.475-4.209
			C8.798,23.079,9.17,26.742,9.952,26.981z"/>
		<radialGradient id="SVGID_1_" cx="19.1792" cy="21.083" r="22.9809" gradientUnits="userSpaceOnUse">
			<stop  offset="0" style="stop-color:#FEF722"/>
			<stop  offset="1" style="stop-color:#FFAF47"/>
		</radialGradient>
		<path fill="url(#SVGID_1_)" d="M38.238,30.371c0.32,2.36,1.291,4.534,0,6.51c-1.693,1.018-2.171-0.681-3.8-0.543
			c-0.092-1.359,1.216-1.315,1.899-1.899c-0.073-0.638-1.009,0.027-1.085,0.271c-0.83-0.435-1.338-1.194-1.628-2.168
			c-0.389,1.419-1.724,1.892-3.525,1.896c3.048,1.384,1.533,6.038,2.274,9.729c0.002-0.026-5.824-0.016-11.71,0
			c-0.06,0-0.117,0-0.176,0c-3.932,0-7.862,0-11.886,0c0.608-3.813,2.559-5.213,3.316-8.914c-0.25-1.016-2.176-0.353-3.253-0.543
			c0.323-1.135,0.282-2.105-0.271-2.982c-0.475,0.659,0.467,2.575-0.543,3.254c-0.887,0.073-0.575-1.053-1.357-1.086
			c0.038,1.138,1.14,1.214,0.814,2.714c-0.852,0.131-0.719-0.729-1.357-0.813c0.239,0.479,0.86,0.792,0.271,1.356
			c-1.037,0.133-1.734-0.076-2.171-0.543c-0.043-5.872,5.59-8.89,10.31-5.425c-1.465-1.248-3.669-1.759-4.339-3.799
			c1.289-0.771,1.973-5.229-0.814-4.885c0.622-3.265,0.866-6.912,2.44-9.227c-0.654,0.339-0.877,1.113-1.083,1.899
			C7.588,12.495,2.692,9.3,4.592,3.506c3.243,2.283,6.942,5.528,8.139,8.953c3.528-1.883,12.226-2.934,14.111,0.271
			c3.498-2.657,7.818-5.921,12.48-6.51c-0.572,5.938-4.648,8.375-10.038,9.496c0.229,0.795,0.874-0.16,1.357,0
			c0.684,4.163,1.425,8.591,0.813,13.297c-0.314,0.682-1.137,0.853-1.628,1.357C31.417,29.619,36.116,28.647,38.238,30.371z
			 M30.883,27.556c1.49-4.478-1.257-4.613-3.077-3.146C26.2,26.88,28.848,29.594,30.883,27.556z M27.385,22.229
			c3.94-9.468-11.463-7.889-6.396-0.404C23.274,21.624,25.301,21.797,27.385,22.229z M11.646,23.857
			C9.216,32.995,29.8,34.503,25.757,24.4C22.34,23.716,16.994,23.933,11.646,23.857z M16.801,21.686
			c0.348,0.369,1.33,0.418,1.357-0.271C17.813,21.045,16.829,20.997,16.801,21.686z M15.444,21.686
			c3.77-7.696-8.138-8.242-4.836-0.155C11.941,21.417,14.215,21.198,15.444,21.686z"/>
		<path d="M32.374,44.167c-3.965,0-7.841,0-11.71,0C26.549,44.151,32.375,44.14,32.374,44.167z"/>
		<path d="M27.806,24.411c1.82-1.468,4.567-1.332,3.077,3.146C28.848,29.594,26.2,26.88,27.806,24.411z M30.205,27.794
			c1.051-0.542,1.083-3.563-0.105-3.938C26.371,23.657,27.083,29.048,30.205,27.794z"/>
		<path fill="#FD683D" d="M30.099,23.857c1.188,0.375,1.156,3.396,0.105,3.938C27.083,29.048,26.371,23.657,30.099,23.857z"/>
		<path d="M20.989,21.825c-5.066-7.485,10.337-9.064,6.396,0.404C25.301,21.797,23.274,21.624,20.989,21.825z M27.149,21.928
			c0.494-1.368,0.746-3.97-0.578-4.855c0.07,1.308-1.558,1.191-2.304,0.646c-0.543-0.508-0.241-1.381,0.133-1.731
			c-3.932,0.103-4.271,3.056-3.289,5.498C22.332,21.382,25.42,21.35,27.149,21.928z M26.028,17.073
			c0.343-0.575-0.778-0.947-1.085-0.814C24.539,16.94,25.591,17.347,26.028,17.073z"/>
		<path fill="#FFFFFF" d="M26.571,17.073c1.324,0.885,1.072,3.487,0.578,4.855c-1.729-0.578-4.817-0.545-6.038-0.442
			c-0.982-2.442-0.643-5.395,3.289-5.498c-0.374,0.35-0.676,1.224-0.133,1.731C25.013,18.264,26.641,18.381,26.571,17.073z"/>
		<path fill="#FFFFFF" d="M24.943,16.259c0.307-0.133,1.428,0.239,1.085,0.814C25.591,17.347,24.539,16.94,24.943,16.259z"/>
		<path d="M25.757,24.4c4.043,10.104-16.541,8.595-14.112-0.543C16.994,23.933,22.34,23.716,25.757,24.4z M25.486,28.742
			c0.276-1.698,0.026-2.45-0.271-4.07c-7.884-2.483-17.14,3.487-7.327,5.699C18.604,27.797,23.605,26.172,25.486,28.742z
			 M24.943,29.285c-1.224-2.101-5.837-0.931-6.242,1.086C20.579,30.839,24.164,30.804,24.943,29.285z"/>
		<path fill="#9E2E3D" d="M25.214,24.671c0.298,1.62,0.548,2.372,0.271,4.07c-1.881-2.569-6.882-0.944-7.599,1.629
			C8.074,28.159,17.331,22.188,25.214,24.671z"/>
		<radialGradient id="SVGID_2_" cx="21.8218" cy="29.4048" r="2.3723" gradientUnits="userSpaceOnUse">
			<stop  offset="0" style="stop-color:#FE8F8D"/>
			<stop  offset="0.2437" style="stop-color:#FD8A8B"/>
			<stop  offset="0.5127" style="stop-color:#F87D86"/>
			<stop  offset="0.7927" style="stop-color:#F2677D"/>
			<stop  offset="1" style="stop-color:#EB5275"/>
		</radialGradient>
		<path fill="url(#SVGID_2_)" d="M18.701,30.371c0.404-2.017,5.018-3.187,6.242-1.086C24.164,30.804,20.579,30.839,18.701,30.371z"
			/>
		<radialGradient id="SVGID_3_" cx="19.1792" cy="21.083" r="22.9809" gradientUnits="userSpaceOnUse">
			<stop  offset="0" style="stop-color:#FEF722"/>
			<stop  offset="1" style="stop-color:#FFAF47"/>
		</radialGradient>
		<path fill="url(#SVGID_3_)" d="M8.601,44.167c4.024,0,7.954,0,11.886,0C14.541,44.18,8.595,44.194,8.601,44.167z"/>
		<path d="M18.158,21.415c-0.027,0.689-1.009,0.641-1.357,0.271C16.829,20.997,17.813,21.045,18.158,21.415z"/>
		<path d="M10.608,21.531c-3.302-8.087,8.605-7.542,4.836,0.155C14.215,21.198,11.941,21.417,10.608,21.531z M15.344,21.282
			c-0.201-0.543,1.259-2.768-0.168-3.889c-0.25,1.085-1.606,0.722-1.902,0.222c-0.336-1.05,0.217-1.286,0.342-1.321
			c-2.839-0.814-3.731,2.002-2.782,4.953C12.598,20.888,13.887,20.875,15.344,21.282z"/>
		<path fill="#FFFFFF" d="M15.176,17.393c1.428,1.121-0.032,3.346,0.168,3.889c-1.458-0.407-2.747-0.394-4.51-0.035
			c-0.95-2.95-0.057-5.767,2.782-4.953c-0.125,0.035-0.679,0.271-0.342,1.321C13.569,18.115,14.926,18.479,15.176,17.393z"/>
		<path fill="#FD683D" d="M9.477,22.772c1.664-0.03,1.729,3.359,0.475,4.209C9.17,26.742,8.798,23.079,9.477,22.772z"/>
	</g>
	<g>
	</g>
</g>
<path fill="#FFFFFF" d="M13.898,16.51c0.237-0.119,1.056,0.478,0.906,0.656C14.335,17.635,13.304,17.073,13.898,16.51"/>
</svg>
